<?xml version="1.0" encoding="UTF-8" standalone="no"?><svg xmlns="http://www.w3.org/2000/svg" xmlns:xlink="http://www.w3.org/1999/xlink" style="isolation:isolate" viewBox="0 0 194 211" width="194pt" height="211pt"><defs><clipPath id="_clipPath_k4dSV4AEZn4Ysg56DpcERyp31EkWrDW8"><rect width="194" height="211"/></clipPath></defs><g clip-path="url(#_clipPath_k4dSV4AEZn4Ysg56DpcERyp31EkWrDW8)"><rect width="194" height="211" style="fill:rgb(34,34,34)" fill-opacity="0"/><path d=" M 85.455 124.261 L 107.583 124.261 C 110.238 124.261 112.393 126.416 112.393 129.071 L 112.393 150.237 C 112.393 152.892 110.238 155.047 107.583 155.047 L 85.455 155.047 C 82.8 155.047 80.645 152.892 80.645 150.237 L 80.645 129.071 C 80.645 126.416 82.8 124.261 85.455 124.261 Z " fill="rgb(246,245,244)"/><path d=" M 83.531 141.578 L 109.507 141.578 C 111.1 141.578 112.393 142.871 112.393 144.464 L 112.393 152.161 C 112.393 153.754 111.1 155.047 109.507 155.047 L 83.531 155.047 C 81.938 155.047 80.645 153.754 80.645 152.161 L 80.645 144.464 C 80.645 142.871 81.938 141.578 83.531 141.578 Z " fill="rgb(192,191,188)"/><path d=" M 90.265 130.995 C 90.265 127.278 93.283 124.261 97 124.261 C 100.717 124.261 103.735 127.278 103.735 130.995 C 103.735 134.712 100.717 137.73 97 137.73 C 93.283 137.73 90.265 134.712 90.265 130.995 Z " fill="rgb(23,23,23)"/><path d=" M 12.336 4 L 181.664 4 C 186.442 4 190.322 7.88 190.322 12.659 L 190.322 121.374 C 190.322 126.153 186.442 130.033 181.664 130.033 L 12.336 130.033 C 7.558 130.033 3.678 126.153 3.678 121.374 L 3.678 12.659 C 3.678 7.88 7.558 4 12.336 4 Z " fill="rgb(246,245,244)"/><path d=" M 171.081 171.403 L 171.081 171.403 C 175.859 171.403 179.739 175.283 179.739 180.062 L 179.739 189.682 C 179.739 194.461 175.859 198.341 171.081 198.341 L 171.081 198.341 C 166.302 198.341 162.422 194.461 162.422 189.682 L 162.422 180.062 C 162.422 175.283 166.302 171.403 171.081 171.403 Z " fill="rgb(192,191,188)"/><path d=" M 171.081 168.517 L 171.081 168.517 C 175.859 168.517 179.739 172.396 179.739 177.175 L 179.739 186.796 C 179.739 191.575 175.859 195.455 171.081 195.455 L 171.081 195.455 C 166.302 195.455 162.422 191.575 162.422 186.796 L 162.422 177.175 C 162.422 172.396 166.302 168.517 171.081 168.517 Z " fill="rgb(246,245,244)"/><g filter="url(#ptI6tnWU9bou63lxUWdHIYnVHkcpd0tH)"><path d=" M 45.047 164.668 L 149.915 164.668 C 153.101 164.668 155.687 167.255 155.687 170.441 L 155.687 197.379 C 155.687 200.565 153.101 203.152 149.915 203.152 L 45.047 203.152 C 41.861 203.152 39.275 200.565 39.275 197.379 L 39.275 170.441 C 39.275 167.255 41.861 164.668 45.047 164.668 Z " fill="rgb(192,191,188)"/><path d=" M 45.047 161.782 L 149.915 161.782 C 153.101 161.782 155.687 164.369 155.687 167.555 L 155.687 194.493 C 155.687 197.679 153.101 200.265 149.915 200.265 L 45.047 200.265 C 41.861 200.265 39.275 197.679 39.275 194.493 L 39.275 167.555 C 39.275 164.369 41.861 161.782 45.047 161.782 Z " fill="rgb(243,243,243)"/><path d=" M 42.161 168.036 C 42.161 166.177 43.67 164.668 45.528 164.668 C 47.387 164.668 48.896 166.177 48.896 168.036 C 48.896 169.894 47.387 171.403 45.528 171.403 C 43.67 171.403 42.161 169.894 42.161 168.036 Z  M 50.82 168.036 C 50.82 166.177 52.329 164.668 54.187 164.668 C 56.046 164.668 57.555 166.177 57.555 168.036 C 57.555 169.894 56.046 171.403 54.187 171.403 C 52.329 171.403 50.82 169.894 50.82 168.036 Z  M 62.365 176.555 C 62.365 178.415 60.857 179.922 58.998 179.922 C 57.138 179.922 55.63 178.415 55.63 176.555 C 55.63 174.695 57.138 173.188 58.998 173.188 C 60.857 173.188 62.365 174.695 62.365 176.555 Z  M 66.213 185.353 C 66.213 187.213 64.706 188.72 62.846 188.72 C 60.986 188.72 59.479 187.213 59.479 185.353 C 59.479 183.493 60.986 181.986 62.846 181.986 C 64.706 181.986 66.213 183.493 66.213 185.353 Z  M 49.377 194.012 C 49.377 195.872 47.869 197.379 46.009 197.379 C 44.15 197.379 42.642 195.872 42.642 194.012 C 42.642 192.152 44.15 190.645 46.009 190.645 C 47.869 190.645 49.377 192.152 49.377 194.012 Z  M 134.521 194.012 C 134.521 195.872 133.014 197.379 131.154 197.379 C 129.294 197.379 127.787 195.872 127.787 194.012 C 127.787 192.152 129.294 190.645 131.154 190.645 C 133.014 190.645 134.521 192.152 134.521 194.012 Z  M 57.555 194.012 C 57.555 195.872 56.047 197.379 54.187 197.379 C 52.327 197.379 50.82 195.872 50.82 194.012 C 50.82 192.152 52.327 190.645 54.187 190.645 C 56.047 190.645 57.555 192.152 57.555 194.012 Z  M 125.863 194.012 C 125.863 195.872 124.355 197.379 122.495 197.379 C 120.636 197.379 119.128 195.872 119.128 194.012 C 119.128 192.152 120.636 190.645 122.495 190.645 C 124.355 190.645 125.863 192.152 125.863 194.012 Z  M 74.872 185.353 C 74.872 187.213 73.364 188.72 71.505 188.72 C 69.645 188.72 68.137 187.213 68.137 185.353 C 68.137 183.493 69.645 181.986 71.505 181.986 C 73.364 181.986 74.872 183.493 74.872 185.353 Z  M 83.531 185.353 C 83.531 187.213 82.023 188.72 80.164 188.72 C 78.304 188.72 76.796 187.213 76.796 185.353 C 76.796 183.493 78.304 181.986 80.164 181.986 C 82.023 181.986 83.531 183.493 83.531 185.353 Z  M 92.19 185.353 C 92.19 187.213 90.682 188.72 88.822 188.72 C 86.963 188.72 85.455 187.213 85.455 185.353 C 85.455 183.493 86.963 181.986 88.822 181.986 C 90.682 181.986 92.19 183.493 92.19 185.353 Z  M 100.848 185.353 C 100.848 187.213 99.341 188.72 97.481 188.72 C 95.621 188.72 94.114 187.213 94.114 185.353 C 94.114 183.493 95.621 181.986 97.481 181.986 C 99.341 181.986 100.848 183.493 100.848 185.353 Z  M 109.507 185.353 C 109.507 187.213 108 188.72 106.14 188.72 C 104.28 188.72 102.773 187.213 102.773 185.353 C 102.773 183.493 104.28 181.986 106.14 181.986 C 108 181.986 109.507 183.493 109.507 185.353 Z  M 118.166 185.353 C 118.166 187.213 116.658 188.72 114.799 188.72 C 112.939 188.72 111.431 187.213 111.431 185.353 C 111.431 183.493 112.939 181.986 114.799 181.986 C 116.658 181.986 118.166 183.493 118.166 185.353 Z  M 126.825 185.353 C 126.825 187.213 125.317 188.72 123.457 188.72 C 121.598 188.72 120.09 187.213 120.09 185.353 C 120.09 183.493 121.598 181.986 123.457 181.986 C 125.317 181.986 126.825 183.493 126.825 185.353 Z  M 135.483 185.353 C 135.483 187.213 133.976 188.72 132.116 188.72 C 130.256 188.72 128.749 187.213 128.749 185.353 C 128.749 183.493 130.256 181.986 132.116 181.986 C 133.976 181.986 135.483 183.493 135.483 185.353 Z  M 64.289 176.694 C 64.289 174.836 65.798 173.327 67.656 173.327 C 69.515 173.327 71.024 174.836 71.024 176.694 C 71.024 178.553 69.515 180.062 67.656 180.062 C 65.798 180.062 64.289 178.553 64.289 176.694 Z  M 72.948 176.694 C 72.948 174.836 74.457 173.327 76.315 173.327 C 78.174 173.327 79.682 174.836 79.682 176.694 C 79.682 178.553 78.174 180.062 76.315 180.062 C 74.457 180.062 72.948 178.553 72.948 176.694 Z  M 81.607 176.694 C 81.607 174.836 83.115 173.327 84.974 173.327 C 86.832 173.327 88.341 174.836 88.341 176.694 C 88.341 178.553 86.832 180.062 84.974 180.062 C 83.115 180.062 81.607 178.553 81.607 176.694 Z  M 90.265 176.694 C 90.265 174.836 91.774 173.327 93.633 173.327 C 95.491 173.327 97 174.836 97 176.694 C 97 178.553 95.491 180.062 93.633 180.062 C 91.774 180.062 90.265 178.553 90.265 176.694 Z  M 98.924 176.694 C 98.924 174.836 100.433 173.327 102.291 173.327 C 104.15 173.327 105.659 174.836 105.659 176.694 C 105.659 178.553 104.15 180.062 102.291 180.062 C 100.433 180.062 98.924 178.553 98.924 176.694 Z  M 107.583 176.694 C 107.583 174.836 109.092 173.327 110.95 173.327 C 112.809 173.327 114.318 174.836 114.318 176.694 C 114.318 178.553 112.809 180.062 110.95 180.062 C 109.092 180.062 107.583 178.553 107.583 176.694 Z  M 116.242 176.694 C 116.242 174.836 117.751 173.327 119.609 173.327 C 121.467 173.327 122.976 174.836 122.976 176.694 C 122.976 178.553 121.467 180.062 119.609 180.062 C 117.751 180.062 116.242 178.553 116.242 176.694 Z  M 124.9 176.694 C 124.9 174.836 126.409 173.327 128.268 173.327 C 130.126 173.327 131.635 174.836 131.635 176.694 C 131.635 178.553 130.126 180.062 128.268 180.062 C 126.409 180.062 124.9 178.553 124.9 176.694 Z  M 133.559 176.694 C 133.559 174.836 135.068 173.327 136.927 173.327 C 138.785 173.327 140.294 174.836 140.294 176.694 C 140.294 178.553 138.785 180.062 136.927 180.062 C 135.068 180.062 133.559 178.553 133.559 176.694 Z  M 59.479 168.036 C 59.479 166.177 60.988 164.668 62.846 164.668 C 64.704 164.668 66.213 166.177 66.213 168.036 C 66.213 169.894 64.704 171.403 62.846 171.403 C 60.988 171.403 59.479 169.894 59.479 168.036 Z  M 68.137 168.036 C 68.137 166.177 69.646 164.668 71.505 164.668 C 73.363 164.668 74.872 166.177 74.872 168.036 C 74.872 169.894 73.363 171.403 71.505 171.403 C 69.646 171.403 68.137 169.894 68.137 168.036 Z  M 76.796 168.036 C 76.796 166.177 78.305 164.668 80.164 164.668 C 82.022 164.668 83.531 166.177 83.531 168.036 C 83.531 169.894 82.022 171.403 80.164 171.403 C 78.305 171.403 76.796 169.894 76.796 168.036 Z  M 85.455 168.036 C 85.455 166.177 86.964 164.668 88.822 164.668 C 90.681 164.668 92.19 166.177 92.19 168.036 C 92.19 169.894 90.681 171.403 88.822 171.403 C 86.964 171.403 85.455 169.894 85.455 168.036 Z  M 94.114 168.036 C 94.114 166.177 95.623 164.668 97.481 164.668 C 99.34 164.668 100.848 166.177 100.848 168.036 C 100.848 169.894 99.34 171.403 97.481 171.403 C 95.623 171.403 94.114 169.894 94.114 168.036 Z  M 102.773 168.036 C 102.773 166.177 104.281 164.668 106.14 164.668 C 107.998 164.668 109.507 166.177 109.507 168.036 C 109.507 169.894 107.998 171.403 106.14 171.403 C 104.281 171.403 102.773 169.894 102.773 168.036 Z  M 111.431 168.036 C 111.431 166.177 112.94 164.668 114.799 164.668 C 116.657 164.668 118.166 166.177 118.166 168.036 C 118.166 169.894 116.657 171.403 114.799 171.403 C 112.94 171.403 111.431 169.894 111.431 168.036 Z  M 120.09 168.036 C 120.09 166.177 121.599 164.668 123.457 164.668 C 125.316 164.668 126.825 166.177 126.825 168.036 C 126.825 169.894 125.316 171.403 123.457 171.403 C 121.599 171.403 120.09 169.894 120.09 168.036 Z  M 128.749 168.036 C 128.749 166.177 130.258 164.668 132.116 164.668 C 133.975 164.668 135.483 166.177 135.483 168.036 C 135.483 169.894 133.975 171.403 132.116 171.403 C 130.258 171.403 128.749 169.894 128.749 168.036 Z  M 137.408 168.036 C 137.408 166.177 138.916 164.668 140.775 164.668 C 142.633 164.668 144.142 166.177 144.142 168.036 C 144.142 169.894 142.633 171.403 140.775 171.403 C 138.916 171.403 137.408 169.894 137.408 168.036 Z  M 146.066 168.036 C 146.066 166.177 147.575 164.668 149.434 164.668 C 151.292 164.668 152.801 166.177 152.801 168.036 C 152.801 169.894 151.292 171.403 149.434 171.403 C 147.575 171.403 146.066 169.894 146.066 168.036 Z  M 142.218 176.694 C 142.218 174.835 143.726 173.327 145.585 173.327 L 149.434 173.327 C 151.293 173.327 152.801 174.835 152.801 176.694 L 152.801 176.694 C 152.801 178.554 151.293 180.062 149.434 180.062 L 145.585 180.062 C 143.726 180.062 142.218 178.554 142.218 176.694 L 142.218 176.694 Z  M 43.123 176.694 C 43.123 174.835 44.631 173.327 46.491 173.327 L 50.339 173.327 C 52.199 173.327 53.706 174.835 53.706 176.694 L 53.706 176.694 C 53.706 178.554 52.199 180.062 50.339 180.062 L 46.491 180.062 C 44.631 180.062 43.123 178.554 43.123 176.694 L 43.123 176.694 Z  M 42.161 185.353 C 42.161 183.493 43.669 181.986 45.528 181.986 L 54.187 181.986 C 56.047 181.986 57.555 183.493 57.555 185.353 L 57.555 185.353 C 57.555 187.213 56.047 188.72 54.187 188.72 L 45.528 188.72 C 43.669 188.72 42.161 187.213 42.161 185.353 L 42.161 185.353 Z  M 59.479 194.012 C 59.479 192.152 60.986 190.645 62.846 190.645 L 71.505 190.645 C 73.364 190.645 74.872 192.152 74.872 194.012 L 74.872 194.012 C 74.872 195.872 73.364 197.379 71.505 197.379 L 62.846 197.379 C 60.986 197.379 59.479 195.872 59.479 194.012 L 59.479 194.012 Z  M 136.445 194.012 C 136.445 192.152 137.953 190.645 139.813 190.645 L 148.472 190.645 C 150.331 190.645 151.839 192.152 151.839 194.012 L 151.839 194.012 C 151.839 195.872 150.331 197.379 148.472 197.379 L 139.813 197.379 C 137.953 197.379 136.445 195.872 136.445 194.012 L 136.445 194.012 Z  M 137.408 185.353 C 137.408 183.493 138.915 181.986 140.775 181.986 L 149.434 181.986 C 151.293 181.986 152.801 183.493 152.801 185.353 L 152.801 185.353 C 152.801 187.213 151.293 188.72 149.434 188.72 L 140.775 188.72 C 138.915 188.72 137.408 187.213 137.408 185.353 L 137.408 185.353 Z  M 76.796 194.012 C 76.796 192.152 78.304 190.645 80.164 190.645 L 113.836 190.645 C 115.696 190.645 117.204 192.152 117.204 194.012 L 117.204 194.012 C 117.204 195.872 115.696 197.379 113.836 197.379 L 80.164 197.379 C 78.304 197.379 76.796 195.872 76.796 194.012 L 76.796 194.012 Z " fill-rule="evenodd" fill="rgb(97,92,103)"/></g><defs><filter id="ptI6tnWU9bou63lxUWdHIYnVHkcpd0tH" x="-200%" y="-200%" width="400%" height="400%" filterUnits="objectBoundingBox" color-interpolation-filters="sRGB"><feGaussianBlur xmlns="http://www.w3.org/2000/svg" in="SourceGraphic" stdDeviation="1"/><feOffset xmlns="http://www.w3.org/2000/svg" dx="0" dy="2" result="pf_100_offsetBlur"/><feFlood xmlns="http://www.w3.org/2000/svg" flood-color="#000000" flood-opacity="0"/><feComposite xmlns="http://www.w3.org/2000/svg" in2="pf_100_offsetBlur" operator="in" result="pf_100_dropShadow"/><feBlend xmlns="http://www.w3.org/2000/svg" in="SourceGraphic" in2="pf_100_dropShadow" mode="normal"/></filter></defs><path d=" M 171.081 168.517 L 171.081 168.517 C 171.612 168.517 172.043 168.948 172.043 169.479 L 172.043 175.251 C 172.043 175.782 171.612 176.213 171.081 176.213 L 171.081 176.213 C 170.55 176.213 170.118 175.782 170.118 175.251 L 170.118 169.479 C 170.118 168.948 170.55 168.517 171.081 168.517 Z " fill="rgb(97,92,103)"/><clipPath id="_clipPath_wVB8S5icOuZlNDAAvUOsjK2dNLzvUuA0"><path d="M 15.219 6.89 L 178.781 6.89 C 183.56 6.89 187.44 10.77 187.44 15.549 L 187.44 118.491 C 187.44 123.27 183.56 127.15 178.781 127.15 L 15.219 127.15 C 10.44 127.15 6.56 123.27 6.56 118.491 L 6.56 15.549 C 6.56 10.77 10.44 6.89 15.219 6.89 Z" style="stroke:none;fill:#FFFFFF;stroke-miterlimit:10;"/></clipPath><g clip-path="url(#_clipPath_wVB8S5icOuZlNDAAvUOsjK2dNLzvUuA0)"><g><path d=" M 187.436 6.886 L 6.564 6.886 L 6.564 127.147 L 187.436 127.147 L 187.436 6.886 Z " fill="rgb(191,86,255)"/><path d=" M 187.436 104.447 C 178.665 98.545 169.894 92.652 160.305 90.157 C 150.725 87.662 140.334 88.582 130.416 85.16 C 120.499 81.745 111.063 73.989 108.297 64.234 C 105.539 54.471 109.451 42.701 107.446 32.809 C 105.45 22.91 97.529 14.898 89.616 6.886 L 187.436 6.886 L 187.436 104.447 Z " fill="rgb(175,60,250)"/><path d=" M 187.436 92.252 C 179.763 87.095 172.083 81.929 163.697 79.746 C 155.31 77.571 146.218 78.371 137.544 75.372 C 128.869 72.382 120.603 65.601 118.19 57.062 C 115.768 48.522 119.2 38.223 117.444 29.563 C 115.696 20.911 108.769 13.899 101.842 6.886 L 187.436 6.886 L 187.436 92.252 Z " fill="rgb(158,59,234)"/><path d=" M 187.436 80.058 C 180.853 75.636 174.28 71.207 167.088 69.343 C 159.904 67.472 152.103 68.152 144.671 65.593 C 137.232 63.027 130.152 57.213 128.083 49.897 C 126.007 42.573 128.949 33.745 127.45 26.325 C 125.942 18.904 120.01 12.899 114.069 6.886 L 187.436 6.886 L 187.436 80.058 Z " fill="rgb(127,55,203)"/><path d=" M 187.436 67.864 C 181.952 64.178 176.468 60.492 170.479 58.933 C 164.49 57.373 157.996 57.941 151.798 55.806 C 145.602 53.671 139.7 48.826 137.977 42.725 C 136.245 36.624 138.699 29.267 137.448 23.086 C 136.197 16.905 131.243 11.892 126.295 6.886 L 187.436 6.886 L 187.436 67.864 Z " fill="rgb(98,49,171)"/><path d=" M 187.436 55.67 C 183.051 52.72 178.665 49.769 173.871 48.522 C 169.077 47.274 163.881 47.73 158.927 46.027 C 153.963 44.316 149.249 40.438 147.87 35.56 C 146.483 30.674 148.44 24.789 147.445 19.848 C 146.443 14.898 142.483 10.892 138.522 6.886 L 187.436 6.886 L 187.436 55.67 Z " fill="rgb(73,41,139)"/><path d=" M 187.436 43.468 C 184.149 41.261 180.853 39.046 177.262 38.111 C 173.671 37.175 169.774 37.519 166.054 36.24 C 162.333 34.96 158.798 32.05 157.756 28.388 C 156.721 24.733 158.189 20.32 157.443 16.609 C 156.69 12.899 153.723 9.893 150.757 6.886 L 187.436 6.886 L 187.436 43.468 Z " fill="rgb(50,32,107)"/><path d=" M 187.436 31.274 C 185.24 29.803 183.051 28.324 180.653 27.708 C 178.256 27.084 175.658 27.308 173.181 26.453 C 170.703 25.597 168.339 23.662 167.649 21.223 C 166.96 18.784 167.937 15.842 167.441 13.363 C 166.936 10.892 164.964 8.893 162.983 6.886 L 187.436 6.886 L 187.436 31.274 Z " fill="rgb(31,23,76)"/><path d=" M 187.436 19.08 C 186.337 18.345 185.24 17.609 184.045 17.297 C 182.85 16.985 181.551 17.097 180.309 16.673 C 179.066 16.242 177.887 15.274 177.543 14.051 C 177.198 12.835 177.687 11.364 177.438 10.125 C 177.19 8.893 176.196 7.886 175.21 6.886 L 187.436 6.886 L 187.436 19.08 Z " fill="rgb(17,11,47)"/><path d=" M 6.564 29.587 C 17.059 30.171 27.545 30.747 36.79 34.361 C 46.034 37.975 54.035 44.612 62.221 50.753 C 70.406 56.886 78.776 62.531 85.239 70.135 C 91.709 77.747 96.262 87.319 99.133 97.154 C 102.003 106.981 103.198 117.064 104.384 127.147 L 6.564 127.147 L 6.564 29.587 Z " fill="rgb(175,60,250)"/><path d=" M 6.564 41.781 C 15.744 42.293 24.924 42.797 33.013 45.955 C 41.103 49.122 48.102 54.927 55.262 60.3 C 62.421 65.673 69.749 70.607 75.409 77.26 C 81.061 83.92 85.046 92.3 87.564 100.895 C 90.073 109.499 91.115 118.327 92.158 127.147 L 6.564 127.147 L 6.564 41.781 Z " fill="rgb(158,59,234)"/><path d=" M 6.564 53.975 C 14.437 54.415 22.302 54.847 29.237 57.557 C 36.172 60.268 42.169 65.242 48.302 69.847 C 54.444 74.453 60.721 78.683 65.572 84.392 C 70.422 90.093 73.838 97.274 75.986 104.646 C 78.143 112.018 79.033 119.583 79.931 127.147 L 6.564 127.147 L 6.564 53.975 Z " fill="rgb(127,55,203)"/><path d=" M 6.564 66.169 C 13.122 66.537 19.68 66.897 25.453 69.152 C 31.233 71.415 36.236 75.565 41.351 79.395 C 46.466 83.233 51.694 86.759 55.735 91.517 C 59.775 96.274 62.622 102.255 64.417 108.396 C 66.213 114.546 66.959 120.846 67.705 127.147 L 6.564 127.147 L 6.564 66.169 Z " fill="rgb(98,49,171)"/><path d=" M 6.564 78.363 C 11.807 78.659 17.059 78.947 21.677 80.754 C 26.303 82.561 30.295 85.879 34.392 88.95 C 38.481 92.02 42.674 94.835 45.905 98.641 C 49.136 102.447 51.413 107.237 52.848 112.146 C 54.283 117.064 54.877 122.102 55.478 127.147 L 6.564 127.147 L 6.564 78.363 Z " fill="rgb(73,41,139)"/><path d=" M 6.564 90.565 C 10.501 90.781 14.437 90.997 17.901 92.348 C 21.364 93.707 24.363 96.194 27.433 98.497 C 30.504 100.8 33.647 102.919 36.068 105.766 C 38.489 108.62 40.197 112.211 41.279 115.896 C 42.354 119.583 42.803 123.365 43.243 127.147 L 6.564 127.147 L 6.564 90.565 Z " fill="rgb(50,32,107)"/><path d=" M 6.564 102.759 C 9.186 102.902 11.807 103.047 14.124 103.95 C 16.433 104.853 18.43 106.509 20.474 108.045 C 22.527 109.579 24.619 110.994 26.231 112.897 C 27.85 114.793 28.989 117.192 29.702 119.647 C 30.424 122.102 30.72 124.628 31.017 127.147 L 6.564 127.147 L 6.564 102.759 Z " fill="rgb(31,23,76)"/><path d=" M 6.564 114.952 C 7.879 115.025 9.186 115.097 10.34 115.544 C 11.495 116 12.497 116.832 13.523 117.599 C 14.541 118.367 15.592 119.071 16.401 120.023 C 17.203 120.974 17.772 122.165 18.133 123.397 C 18.494 124.628 18.646 125.884 18.79 127.147 L 6.564 127.147 L 6.564 114.952 Z " fill="rgb(17,11,47)"/></g></g></g></svg>
